<svg width="46" height="40" viewBox="0 0 46 40" fill="none" xmlns="http://www.w3.org/2000/svg">
<path d="M45.6562 27.8125C45.6562 28.4341 45.4093 29.0302 44.9698 29.4698C44.5302 29.9093 43.9341 30.1562 43.3125 30.1562H37.1992L40.6367 35.9961C40.795 36.2598 40.8994 36.5522 40.9438 36.8566C40.9883 37.1609 40.9719 37.471 40.8956 37.769C40.8193 38.0669 40.6846 38.3467 40.4993 38.5922C40.3141 38.8378 40.082 39.0441 39.8164 39.1992C39.459 39.4212 39.0457 39.5364 38.625 39.5312C38.2182 39.532 37.8182 39.426 37.4652 39.2238C37.1122 39.0216 36.8184 38.7302 36.6133 38.3789L25.5195 19.6094C25.2035 19.0732 25.1135 18.4335 25.2692 17.831C25.4248 17.2285 25.8135 16.7124 26.3496 16.3965C26.6151 16.24 26.9088 16.1374 27.2139 16.0944C27.519 16.0514 27.8296 16.069 28.128 16.1461C28.7305 16.3018 29.2465 16.6904 29.5625 17.2265L34.4258 25.4687H43.3125C43.9341 25.4687 44.5302 25.7157 44.9698 26.1552C45.4093 26.5947 45.6562 27.1909 45.6562 27.8125ZM24.0156 25.4687H17.0234L29.6992 4.00388C29.9652 3.47354 30.0202 2.86205 29.853 2.29277C29.6859 1.72349 29.309 1.23879 28.7985 0.936454C28.288 0.634117 27.6819 0.536645 27.1023 0.663703C26.5228 0.79076 26.013 1.13289 25.6758 1.62107L23 6.13279L20.3242 1.62107C20.1801 1.33365 19.9783 1.07896 19.7315 0.872864C19.4847 0.666763 19.1981 0.513654 18.8895 0.423063C18.581 0.332471 18.2571 0.306335 17.9381 0.346279C17.619 0.386224 17.3116 0.491394 17.0349 0.655249C16.7582 0.819103 16.5182 1.03814 16.3299 1.29872C16.1415 1.55931 16.0087 1.85587 15.9399 2.16996C15.871 2.48406 15.8675 2.80896 15.9296 3.12446C15.9917 3.43996 16.118 3.73931 16.3008 4.00388L20.2852 10.7422L11.5742 25.4687H2.6875C2.0659 25.4687 1.46976 25.7157 1.03022 26.1552C0.59068 26.5947 0.34375 27.1909 0.34375 27.8125C0.34375 28.4341 0.59068 29.0302 1.03022 29.4698C1.46976 29.9093 2.0659 30.1562 2.6875 30.1562H24.0156C24.6372 30.1562 25.2334 29.9093 25.6729 29.4698C26.1124 29.0302 26.3594 28.4341 26.3594 27.8125C26.3594 27.1909 26.1124 26.5947 25.6729 26.1552C25.2334 25.7157 24.6372 25.4687 24.0156 25.4687ZM9.48437 33.6133C9.22069 33.455 8.9282 33.3506 8.62387 33.3061C8.31955 33.2617 8.00942 33.2781 7.71148 33.3544C7.41354 33.4307 7.13371 33.5654 6.8882 33.7506C6.64269 33.9359 6.43639 34.168 6.28125 34.4336L5.36328 35.9961C5.20498 36.2598 5.10059 36.5522 5.05616 36.8566C5.01173 37.1609 5.02814 37.471 5.10444 37.769C5.18074 38.0669 5.31542 38.3467 5.50066 38.5922C5.68591 38.8378 5.91803 39.0441 6.18359 39.1992C6.54097 39.4212 6.95434 39.5364 7.375 39.5312C7.78184 39.532 8.18177 39.426 8.5348 39.2238C8.88783 39.0216 9.18159 38.7302 9.38672 38.3789L10.3242 36.8164C10.637 36.2801 10.7242 35.6416 10.5668 35.0411C10.4093 34.4406 10.02 33.9271 9.48437 33.6133V33.6133Z" fill="white"/>
</svg>
