<svg width="17" height="17" viewBox="0 0 17 17" fill="none" xmlns="http://www.w3.org/2000/svg">
<path d="M10.5675 0H3.21372C2.83926 0 2.48652 0.299069 2.42773 0.667251L1.57273 5.98641C2.10311 6.09196 2.71145 6.14222 3.39776 6.09196C5.80174 5.91478 6.75132 5.57299 7.02482 4.19074C7.02482 4.19074 7.17435 2.39255 7.75713 2.96556C8.33991 3.53856 11.0366 6.02536 11.0366 6.02536C11.0366 6.02536 11.6602 6.6436 11.0366 7.06959C10.4129 7.49557 6.53789 10.24 6.53789 10.24C6.53789 10.24 5.88737 10.4259 6.04968 9.51994C6.21199 8.61394 6.45609 8.05476 5.72506 8.05476C5.27775 8.05476 3.3543 8.19424 1.31201 7.60992L0.396934 13.2973L0.0084121 15.7137C-0.0503775 16.0819 0.205229 16.3809 0.579693 16.3809H3.74794C4.1224 16.3809 4.47514 16.0819 4.53393 15.7137C4.74864 14.3792 6.02284 13.2973 7.38011 13.2973H8.4281C12.1625 13.2973 15.6694 10.3204 16.2599 6.64863C16.8503 2.97687 14.3019 0 10.5675 0Z" fill="black"/>
</svg>
