<svg width="42" height="39" viewBox="0 0 42 39" fill="none" xmlns="http://www.w3.org/2000/svg">
<path d="M16.9062 38.2812C16.409 38.2812 15.9321 38.0837 15.5804 37.7321C15.2288 37.3804 15.0312 36.9035 15.0312 36.4062C15.0312 35.909 15.2288 35.4321 15.5804 35.0804C15.9321 34.7288 16.409 34.5312 16.9062 34.5312H32.5312C33.8573 34.5312 35.1291 34.0045 36.0668 33.0668C37.0045 32.1291 37.5312 30.8573 37.5312 29.5312V9.53125C37.5312 8.20517 37.0045 6.9334 36.0668 5.99572C35.1291 5.05803 33.8573 4.53125 32.5312 4.53125H16.9062C16.409 4.53125 15.9321 4.33371 15.5804 3.98208C15.2288 3.63044 15.0312 3.15353 15.0312 2.65625C15.0312 2.15897 15.2288 1.68206 15.5804 1.33042C15.9321 0.978794 16.409 0.78125 16.9062 0.78125H32.5312C34.8519 0.78125 37.0775 1.70312 38.7184 3.34407C40.3594 4.98501 41.2812 7.21061 41.2812 9.53125V29.5312C41.2813 31.8519 40.3594 34.0775 38.7184 35.7184C37.0775 37.3594 34.8519 38.2812 32.5312 38.2812H16.9062ZM16.8838 10.0287C17.0646 9.86161 17.2767 9.73173 17.5077 9.64655C17.7388 9.56137 17.9844 9.52254 18.2305 9.53229C18.4766 9.54204 18.7183 9.60018 18.942 9.70338C19.1656 9.80658 19.3667 9.95282 19.5337 10.1338L27.0337 18.2588C27.3539 18.6052 27.5317 19.0596 27.5317 19.5312C27.5317 20.0029 27.3539 20.4573 27.0337 20.8037L19.5337 28.9287C19.3665 29.1095 19.1652 29.2555 18.9415 29.3585C18.7178 29.4614 18.4761 29.5193 18.23 29.5288C17.9839 29.5384 17.7384 29.4993 17.5074 29.4139C17.2764 29.3286 17.0645 29.1985 16.8838 29.0313C16.703 28.864 16.557 28.6627 16.454 28.439C16.3511 28.2153 16.2932 27.9736 16.2837 27.7275C16.2644 27.2305 16.4434 26.7463 16.7812 26.3812L21.3763 21.4037H1.90625C1.40897 21.4037 0.932056 21.2062 0.580425 20.8546C0.228794 20.5029 0.03125 20.026 0.03125 19.5287C0.03125 19.0315 0.228794 18.5546 0.580425 18.2029C0.932056 17.8513 1.40897 17.6537 1.90625 17.6537H21.3737L16.7787 12.6787C16.6116 12.4979 16.4817 12.2858 16.3965 12.0548C16.3114 11.8237 16.2725 11.5781 16.2823 11.332C16.292 11.0859 16.3502 10.8442 16.4534 10.6205C16.5566 10.3969 16.7028 10.1958 16.8838 10.0287V10.0287Z" fill="#F9C519"/>
</svg>
