<svg width="51" height="50" viewBox="0 0 51 50" fill="none" xmlns="http://www.w3.org/2000/svg">
<path fill-rule="evenodd" clip-rule="evenodd" d="M5.8921 1.59428C6.43889 1.04831 7.09548 0.624777 7.81834 0.351751C8.5412 0.078725 9.31383 -0.0375594 10.085 0.0106038C10.8562 0.058767 11.6084 0.270278 12.2917 0.63112C12.9749 0.991962 13.5737 1.4939 14.0483 2.10366L19.6577 9.30991C20.6858 10.6318 21.0483 12.3537 20.6421 13.9787L18.9327 20.8224C18.8443 21.1769 18.8491 21.5482 18.9466 21.9003C19.044 22.2523 19.2309 22.5732 19.489 22.8318L27.1671 30.5099C27.426 30.7685 27.7474 30.9557 28.1001 31.0531C28.4528 31.1506 28.8247 31.1551 29.1796 31.0662L36.0202 29.3568C36.8221 29.1563 37.6591 29.1407 38.468 29.3112C39.2768 29.4818 40.0363 29.834 40.689 30.3412L47.8952 35.9474C50.4858 37.963 50.7233 41.7912 48.4046 44.1068L45.1733 47.338C42.8608 49.6505 39.4046 50.6662 36.1827 49.5318C27.9364 46.6303 20.4492 41.9094 14.2765 35.7193C8.08675 29.5475 3.36587 22.0613 0.463972 13.8162C-0.667278 10.5974 0.348347 7.13803 2.66085 4.82553L5.8921 1.59428Z" fill="#F9C519"/>
</svg>
