<svg width="35" height="38" viewBox="0 0 35 38" fill="none" xmlns="http://www.w3.org/2000/svg">
<path d="M18.9875 18.2L25.148 12.0396L5.25004 0.85627C3.93129 0.14377 2.69587 0.04377 1.61254 0.822937L18.9875 18.2ZM26.198 25.4125L32.6021 21.8104C33.8521 21.1104 34.5375 20.1188 34.5375 19.0188C34.5375 17.9209 33.8521 16.9271 32.6042 16.2271L26.8063 12.9709L20.2792 19.4959L26.198 25.4125V25.4125ZM0.541707 2.33752C0.408374 2.74794 0.333374 3.20627 0.333374 3.70835V34.3438C0.333374 35.1375 0.508374 35.8208 0.825041 36.3646L17.6938 19.4938L0.541707 2.33752ZM18.9875 20.7854L2.21254 37.5625C2.53337 37.6854 2.87921 37.75 3.24379 37.75C3.89379 37.75 4.57087 37.5584 5.26046 37.175L24.5417 26.3479L18.9875 20.7854V20.7854Z" fill="black"/>
</svg>
