<svg width="44" height="44" viewBox="0 0 44 44" fill="none" xmlns="http://www.w3.org/2000/svg">
<path d="M22 41.5312V37.625M22 6.375V2.46875V6.375Z" stroke="#F9C519" stroke-width="4.6875" stroke-linecap="round" stroke-linejoin="round"/>
<path d="M22 7.9375C19.2187 7.9375 16.4999 8.76225 14.1873 10.3075C11.8747 11.8527 10.0723 14.0489 9.00795 16.6185C7.94359 19.1881 7.66511 22.0156 8.20771 24.7435C8.75032 27.4713 10.0896 29.977 12.0563 31.9437C14.023 33.9104 16.5287 35.2497 19.2565 35.7923C21.9844 36.3349 24.8119 36.0564 27.3815 34.9921C29.9511 33.9277 32.1473 32.1253 33.6925 29.8127C35.2378 27.5001 36.0625 24.7813 36.0625 22C36.0625 18.2704 34.5809 14.6935 31.9437 12.0563C29.3065 9.41908 25.7296 7.9375 22 7.9375Z" stroke="#F9C519" stroke-width="3.125" stroke-miterlimit="10"/>
<path d="M2.46875 22H6.375M37.625 22H41.5312H37.625Z" stroke="#F9C519" stroke-width="4.6875" stroke-linecap="round" stroke-linejoin="round"/>
</svg>
