<svg width="231" height="38" viewBox="0 0 231 38" fill="none" xmlns="http://www.w3.org/2000/svg">
<path d="M23.6762 0H7.20023C6.36126 0 5.57096 0.681487 5.43925 1.52046L3.52364 13.6412C4.71194 13.8817 6.07492 13.9963 7.61256 13.8817C12.9986 13.478 15.1261 12.6991 15.7389 9.54941C15.7389 9.54941 16.0739 5.4519 17.3796 6.7576C18.6853 8.06331 24.727 13.73 24.727 13.73C24.727 13.73 26.1244 15.1387 24.727 16.1094C23.3297 17.0801 14.6479 23.3338 14.6479 23.3338C14.6479 23.3338 13.1904 23.7576 13.5541 21.693C13.9177 19.6285 14.4647 18.3543 12.8268 18.3543C11.8246 18.3543 7.5152 18.6722 2.93951 17.3407L0.889318 30.3004L0.018847 35.8067C-0.112869 36.6457 0.459809 37.3272 1.29878 37.3272H8.39713C9.2361 37.3272 10.0264 36.6457 10.1581 35.8067C10.6392 32.7658 13.494 30.3004 16.5349 30.3004H18.8829C27.2497 30.3004 35.1068 23.517 36.4297 15.1502C37.7526 6.78337 32.043 0 23.6762 0Z" fill="white"/>
<path d="M53.799 9.25452C55.7662 9.25452 57.4069 9.93028 58.7871 11.2503C60.1357 12.5703 60.8115 14.2139 60.8115 16.1496C60.8115 18.0852 60.1357 19.7288 58.7871 21.0488C57.4069 22.3688 55.7633 23.0446 53.799 23.0446H50.1883V29.7936H46.1395V9.25452H53.799ZM53.799 19.2592C55.56 19.2592 56.7913 17.9105 56.7913 16.1496C56.7913 14.3886 55.56 13.0399 53.799 13.0399H50.1883V19.2592H53.799Z" fill="white"/>
<path d="M67.0623 17.6471C67.7667 15.7687 69.5276 14.8295 71.5234 14.8295V19.0559C70.3781 18.9099 69.3215 19.1447 68.4138 19.7603C67.5032 20.3759 67.0651 21.3752 67.0651 22.784V29.7965H63.2797V15.1245H67.0651V17.6471H67.0623Z" fill="white"/>
<path d="M73.2816 11.0441C73.2816 9.78133 74.3381 8.69611 75.6009 8.69611C76.8637 8.69611 77.9489 9.78133 77.9489 11.0441C77.9489 12.3068 76.8923 13.3634 75.6009 13.3634C74.3095 13.3634 73.2816 12.3068 73.2816 11.0441V11.0441ZM73.7225 29.7936V15.1244H77.5079V29.7964H73.7225V29.7936Z" fill="white"/>
<path d="M102.743 20.7567V29.7936H98.9576V21.0201C98.9576 19.2592 98.047 18.2312 96.4922 18.2312C94.7312 18.2312 93.7634 19.4052 93.7634 21.547V29.7936H89.978V21.0201C89.978 19.2592 89.0675 18.2312 87.5126 18.2312C85.8404 18.2312 84.7552 19.4052 84.7552 21.547V29.7936H80.9698V15.1244H84.7552V16.6792C85.6343 15.3592 86.9858 14.7121 88.8327 14.7121C90.6795 14.7121 91.9738 15.4165 92.8242 16.8253C93.792 15.4165 95.2295 14.7121 97.1966 14.7121C100.573 14.7121 102.743 17.0887 102.743 20.7567V20.7567Z" fill="white"/>
<path d="M109.168 24.0153C109.667 25.865 111.047 26.7727 113.306 26.7727C114.743 26.7727 115.86 26.2745 116.593 25.3066L119.646 27.0676C118.208 29.1522 116.066 30.2059 113.249 30.2059C110.812 30.2059 108.876 29.4729 107.41 28.004C105.944 26.5379 105.208 24.6881 105.208 22.4576C105.208 20.227 105.941 18.4374 107.379 16.9398C108.816 15.4423 110.666 14.7092 112.954 14.7092C115.124 14.7092 116.885 15.4423 118.265 16.9398C119.674 18.4374 120.379 20.2843 120.379 22.4576C120.379 22.9558 120.321 23.454 120.233 24.0124H109.171L109.168 24.0153ZM116.593 21.0803C116.152 19.0845 114.715 18.1167 112.954 18.1167C110.929 18.1167 109.549 19.2019 109.108 21.0803H116.59H116.593Z" fill="white"/>
<path d="M138.189 9.25452C140.156 9.25452 141.797 9.93028 143.177 11.2503C144.526 12.5703 145.201 14.2139 145.201 16.1496C145.201 18.0852 144.526 19.7288 143.177 21.0488C141.797 22.3688 140.156 23.0446 138.189 23.0446H134.581V29.7936H130.532V9.25452H138.192H138.189ZM138.189 19.2592C139.95 19.2592 141.181 17.9105 141.181 16.1496C141.181 14.3886 139.95 13.0399 138.189 13.0399H134.581V19.2592H138.189Z" fill="white"/>
<path d="M158.82 15.1244H162.605V29.7964H158.82V28.0641C157.674 29.5015 156.091 30.2059 154.038 30.2059C151.985 30.2059 150.398 29.4729 148.99 27.9753C147.609 26.4778 146.905 24.6309 146.905 22.4576C146.905 20.2843 147.609 18.466 148.99 16.9713C150.398 15.4738 152.071 14.7121 154.038 14.7121C156.005 14.7121 157.677 15.4165 158.82 16.8539V15.1216V15.1244ZM154.739 26.598C155.913 26.598 156.881 26.2172 157.646 25.4527C158.439 24.6595 158.82 23.6631 158.82 22.4604C158.82 21.2578 158.439 20.2585 157.646 19.4968C156.884 18.7037 155.913 18.3228 154.739 18.3228C153.565 18.3228 152.597 18.7037 151.833 19.4968C151.071 20.2585 150.688 21.2578 150.688 22.4604C150.688 23.6631 151.068 24.6624 151.833 25.4527C152.597 26.2172 153.565 26.598 154.739 26.598Z" fill="white"/>
<path d="M169.821 17.6471C170.525 15.7687 172.286 14.8295 174.282 14.8295V19.0559C173.137 18.9099 172.08 19.1447 171.172 19.7603C170.262 20.3759 169.824 21.3752 169.824 22.784V29.7965H166.038V15.1245H169.824V17.6471H169.821Z" fill="white"/>
<path d="M190.011 29.7965H185.61L180.269 23.1362V29.7965H176.484V9.25452H180.269V21.5786L185.317 15.1216H189.836L183.937 22.3688L190.011 29.7936V29.7965Z" fill="white"/>
<path d="M191.448 11.0441C191.448 9.78133 192.505 8.69611 193.767 8.69611C195.03 8.69611 196.115 9.78133 196.115 11.0441C196.115 12.3068 195.059 13.3634 193.767 13.3634C192.476 13.3634 191.448 12.3068 191.448 11.0441ZM191.889 29.7936V15.1244H195.674V29.7964H191.889V29.7936Z" fill="white"/>
<path d="M211.254 16.3271C212.311 17.4123 212.837 18.9098 212.837 20.7882V29.7964H209.052V21.2578C209.052 19.262 207.907 18.2369 206.146 18.2369C204.15 18.2369 202.919 19.4109 202.919 21.8763V29.7993H199.133V15.1244H202.919V16.768C203.829 15.3879 205.267 14.715 207.291 14.715C208.906 14.715 210.226 15.2418 211.251 16.3299L211.254 16.3271Z" fill="white"/>
<path d="M227.303 15.1244H231V29.0921C231 31.3513 230.235 33.0836 228.741 34.2862C227.243 35.4889 225.454 36.0759 223.34 36.0759C220.171 36.0759 217.677 34.8446 216.385 32.4966L219.612 30.6469C220.345 32.027 221.608 32.6999 223.455 32.6999C225.832 32.6999 227.298 31.4372 227.298 29.0921V27.5086C226.184 29.0061 224.626 29.7392 222.602 29.7392C220.577 29.7392 218.788 29.0061 217.379 27.5687C215.999 26.0712 215.294 24.3102 215.294 22.2285C215.294 20.1468 215.999 18.3858 217.407 16.9169C218.816 15.4509 220.549 14.715 222.602 14.715C224.655 14.715 226.181 15.448 227.298 16.9455V15.1273L227.303 15.1244ZM226.129 19.3794C225.368 18.6178 224.397 18.2341 223.194 18.2341C221.992 18.2341 221.024 18.6149 220.231 19.3794C219.469 20.1125 219.085 21.0803 219.085 22.2256C219.085 24.5736 220.818 26.2458 223.194 26.2458C225.571 26.2458 227.303 24.5736 227.303 22.2256C227.303 21.0517 226.923 20.1125 226.129 19.3794Z" fill="white"/>
</svg>
